<svg xmlns="http://www.w3.org/2000/svg" xmlns:xlink="http://www.w3.org/1999/xlink" width="500" zoomAndPan="magnify" viewBox="0 0 375 374.999991" height="500" preserveAspectRatio="xMidYMid meet" version="1.0"><defs><g/><clipPath id="37cc52855f"><path d="M 165.121094 171.789062 L 221 171.789062 L 221 232 L 165.121094 232 Z M 165.121094 171.789062 " clip-rule="nonzero"/></clipPath><clipPath id="9397031c97"><path d="M 231 212 L 256.621094 212 L 256.621094 237.789062 L 231 237.789062 Z M 231 212 " clip-rule="nonzero"/></clipPath></defs><rect x="-37.5" width="450" fill="#ffffff" y="-37.499999" height="449.999989" fill-opacity="1"/><rect x="-37.5" width="450" fill="#ffffff" y="-37.499999" height="449.999989" fill-opacity="1"/><rect x="-37.5" width="450" fill="#ffffff" y="-37.499999" height="449.999989" fill-opacity="1"/><g fill="#8c52ff" fill-opacity="1"><g transform="translate(50.040246, 230.35119)"><g><path d="M 8.761719 0 L 24.980469 0 L 24.980469 -30.199219 L 58.675781 -30.199219 L 58.675781 -43.949219 L 24.980469 -43.949219 L 24.980469 -60.257812 L 63.289062 -60.257812 L 63.289062 -74.007812 L 8.761719 -74.007812 Z M 8.761719 0 "/></g></g></g><g fill="#8c52ff" fill-opacity="1"><g transform="translate(116.305928, 230.35119)"><g><path d="M 24 0 L 40.21875 0 L 40.21875 -60.304688 L 62.402344 -60.304688 L 62.402344 -74.007812 L 1.910156 -74.007812 L 1.910156 -60.304688 L 24 -60.304688 Z M 24 0 "/></g></g></g><g fill="#8c52ff" fill-opacity="1"><g transform="translate(220.383974, 187.985282)"><g><path d="M 20.125 0 L 29.640625 0 L 29.640625 -16.503906 L 46.183594 -16.503906 L 46.183594 -26.132812 L 29.640625 -26.132812 L 29.640625 -42.636719 L 20.125 -42.636719 L 20.125 -26.132812 L 3.621094 -26.132812 L 3.621094 -16.503906 L 20.125 -16.503906 Z M 20.125 0 "/></g></g></g><g clip-path="url(#37cc52855f)"><path fill="#2e79be" d="M 205.320312 212.503906 C 205.320312 212.648438 205.175781 212.789062 205.175781 212.933594 C 202.617188 212.074219 199.910156 211.503906 197.207031 211.359375 L 197.207031 203.789062 L 199.058594 203.789062 C 197.207031 198.933594 197.066406 193.648438 198.773438 188.648438 C 198.203125 188.648438 197.777344 188.789062 197.207031 188.789062 L 197.207031 180.933594 C 198.488281 181.933594 199.769531 183.074219 200.90625 184.359375 C 201.621094 183.21875 202.332031 182.21875 203.183594 181.359375 C 200.90625 178.933594 198.488281 177.074219 195.785156 175.648438 C 200.054688 175.648438 203.328125 176.648438 206.742188 178.21875 C 208.167969 177.21875 209.164062 176.648438 210.585938 176.074219 C 203.46875 171.789062 195.355469 170.789062 187.8125 172.789062 C 181.125 174.503906 176.996094 177.648438 172.582031 182.21875 C 162.761719 193.503906 162.761719 210.359375 172.582031 221.648438 C 178.5625 227.789062 185.25 231.933594 195.355469 231.933594 C 202.898438 231.933594 210.585938 229.074219 216.28125 223.359375 C 216.28125 223.359375 216.707031 222.933594 216.707031 222.933594 C 216.707031 222.933594 217.988281 221.648438 217.988281 221.648438 C 219.125 220.359375 220.121094 218.933594 220.976562 217.503906 C 215.425781 217.933594 209.875 216.359375 205.320312 212.503906 Z M 175.289062 185.503906 C 177.28125 187.359375 179.414062 188.789062 181.835938 189.933594 C 180.554688 193.074219 179.699219 196.503906 179.414062 199.933594 L 169.167969 199.933594 C 169.738281 194.648438 171.871094 189.648438 175.289062 185.503906 Z M 169.167969 204.503906 L 179.414062 204.503906 C 179.558594 207.933594 180.410156 211.359375 181.835938 214.503906 C 179.414062 215.648438 177.28125 217.21875 175.289062 218.933594 C 171.871094 214.933594 169.738281 209.789062 169.167969 204.503906 Z M 178.277344 222.074219 C 179.984375 220.648438 181.835938 219.359375 183.828125 218.503906 C 186.390625 222.648438 189.664062 225.789062 193.507812 228.359375 C 187.671875 227.789062 182.40625 225.503906 178.277344 222.074219 Z M 193.507812 193.21875 L 193.507812 200.074219 L 183.257812 200.074219 C 183.542969 197.21875 184.253906 194.359375 185.535156 191.648438 C 188.097656 192.503906 190.800781 193.074219 193.507812 193.21875 Z M 187.8125 187.648438 C 189.378906 185.359375 191.230469 183.359375 193.507812 181.648438 L 193.507812 188.648438 C 191.511719 188.648438 189.664062 188.21875 187.8125 187.648438 Z M 193.507812 203.789062 C 193.507812 208.074219 193.507812 208.789062 193.507812 211.359375 C 190.800781 211.503906 188.097656 212.074219 185.535156 212.933594 C 184.113281 209.933594 183.402344 206.789062 183.257812 203.789062 Z M 193.507812 215.074219 C 193.507812 217.933594 193.507812 219.648438 193.507812 222.933594 C 191.085938 221.074219 188.808594 218.648438 187.386719 216.359375 C 189.378906 215.648438 191.371094 215.21875 193.507812 215.074219 Z M 183.828125 186.074219 C 181.835938 185.074219 179.984375 183.933594 178.277344 182.503906 C 182.40625 178.933594 187.671875 176.648438 193.507812 176.359375 C 189.664062 178.789062 186.390625 181.933594 183.828125 186.074219 Z M 197.207031 215.789062 C 199.199219 215.933594 201.050781 216.21875 202.898438 216.789062 C 201.335938 219.074219 199.484375 221.074219 197.207031 222.789062 Z M 197.066406 228.21875 C 200.90625 225.789062 204.179688 222.648438 206.742188 218.359375 C 208.734375 219.359375 210.585938 220.503906 212.292969 221.933594 C 208.167969 225.503906 202.757812 227.789062 197.066406 228.21875 Z M 197.066406 228.21875 " fill-opacity="1" fill-rule="nonzero"/></g><g clip-path="url(#9397031c97)"><path fill="#000000" d="M 245.03125 217.21875 C 244.320312 216.503906 243.039062 216.503906 242.328125 217.21875 L 241.046875 218.503906 L 235.066406 212.503906 C 233.929688 213.933594 232.648438 215.21875 231.367188 216.21875 L 237.34375 222.21875 L 235.921875 223.648438 C 235.210938 224.359375 235.210938 225.648438 235.921875 226.359375 L 245.171875 235.648438 C 249.441406 239.933594 256.558594 236.933594 256.558594 231.21875 C 256.417969 227.933594 255.136719 227.503906 245.03125 217.21875 Z M 245.03125 217.21875 " fill-opacity="1" fill-rule="nonzero"/></g><path fill="#000000" d="M 215.140625 174.789062 C 195.640625 174.789062 185.960938 198.789062 200.054688 212.359375 C 213.148438 224.933594 235.066406 216.648438 236.773438 198.503906 C 237.914062 185.789062 227.949219 174.789062 215.140625 174.789062 Z M 201.050781 204.933594 C 194.644531 194.074219 202.472656 180.074219 215.140625 180.074219 C 224.25 180.074219 231.507812 187.503906 231.507812 196.503906 C 231.652344 213.21875 209.449219 219.359375 201.050781 204.933594 Z M 201.050781 204.933594 " fill-opacity="1" fill-rule="nonzero"/><path fill="#000000" d="M 216.136719 192.21875 C 220.40625 190.933594 219.410156 184.648438 215.140625 184.648438 C 213.148438 184.648438 211.296875 186.359375 211.296875 188.503906 C 211.296875 191.074219 213.574219 192.933594 216.136719 192.21875 Z M 216.136719 192.21875 " fill-opacity="1" fill-rule="nonzero"/><path fill="#000000" d="M 216.992188 194.648438 C 215.566406 194.648438 214.714844 194.648438 213.289062 194.648438 C 210.445312 194.648438 208.167969 196.933594 208.167969 199.789062 C 208.167969 203.21875 208.023438 203.789062 208.734375 204.789062 C 209.875 206.503906 210.726562 206.074219 219.410156 206.074219 C 221.117188 206.074219 222.542969 204.648438 222.542969 202.933594 C 222.542969 199.359375 222.542969 199.21875 222.398438 198.503906 C 221.546875 196.503906 219.695312 194.648438 216.992188 194.648438 Z M 216.992188 194.648438 " fill-opacity="1" fill-rule="nonzero"/></svg>